<svg width="83" height="83" viewBox="0 0 83 83" fill="none" xmlns="http://www.w3.org/2000/svg">
<path d="M65.39 0H17.5C7.83502 0 0 7.83502 0 17.5V65.39C0 75.055 7.83502 82.89 17.5 82.89H65.39C75.055 82.89 82.89 75.055 82.89 65.39V17.5C82.89 7.83502 75.055 0 65.39 0Z" fill="white"/>
<path d="M40.67 51C38.6195 51.0002 36.5713 50.8599 34.54 50.58C32.5661 50.299 30.6215 49.8405 28.73 49.21C28.7099 49.3392 28.7099 49.4708 28.73 49.6V50C28.718 50.7687 28.8537 51.5326 29.13 52.25C29.4006 52.9472 29.8364 53.5684 30.4 54.06C31.0743 54.6233 31.8571 55.042 32.7 55.29C33.8215 55.6095 34.9841 55.7612 36.15 55.74C37.5377 55.7397 38.9239 55.6495 40.3 55.47C41.57 55.3 42.79 55.1 44.03 54.9C45.27 54.7 46.47 54.5 47.7 54.33C48.9989 54.1502 50.3087 54.06 51.62 54.06C52.9495 54.0629 54.2675 54.3069 55.51 54.78C56.7871 55.2456 57.9568 55.965 58.9484 56.8948C59.94 57.8246 60.7332 58.9455 61.28 60.19C61.8882 61.6288 62.1913 63.1781 62.17 64.74C62.1878 66.0858 62.0434 67.4288 61.74 68.74C61.46 69.88 61.17 70.96 60.87 72C60.7895 72.1767 60.6852 72.3416 60.56 72.49C60.4496 72.5908 60.3205 72.669 60.18 72.72C60.0319 72.7542 59.8781 72.7542 59.73 72.72H56.73C56.35 72.72 56.1 72.63 56 72.45L55.75 72.03C55.2367 70.75 53.2367 70.11 49.75 70.11C48.2725 70.1096 46.7964 70.1998 45.33 70.38C43.87 70.55 42.38 70.74 40.87 70.95C39.36 71.16 37.78 71.35 36.14 71.52C34.4192 71.7 32.6902 71.7901 30.96 71.79C28.7617 71.851 26.5779 71.4169 24.57 70.52C22.947 69.7684 21.5019 68.6811 20.33 67.33C19.281 66.0881 18.489 64.6503 18 63.1C17.5335 61.6826 17.2873 60.2021 17.27 58.71C17.2506 57.3303 17.4188 55.9544 17.77 54.62C18.0861 53.4648 18.5288 52.348 19.09 51.29C19.621 50.3167 20.2619 49.4074 21 48.58C21.651 47.8173 22.342 47.0896 23.07 46.4C20.8405 44.8697 19.004 42.8345 17.71 40.46C16.2828 37.6811 15.5941 34.5819 15.71 31.46C15.6713 29.2555 16.0095 27.0606 16.71 24.97C17.9367 21.3438 20.3867 18.2574 23.64 16.24C25.2624 15.2228 26.9973 14.3973 28.81 13.78C30.7003 13.1311 32.6496 12.6689 34.63 12.4C36.6346 12.1234 38.6564 11.9897 40.68 12C42.49 12 44.35 12.1 46.24 12.29C48.1121 12.4629 49.9656 12.7975 51.78 13.29C53.5489 13.7752 55.2617 14.4456 56.89 15.29C58.4879 16.1192 59.9375 17.2073 61.18 18.51L65.6 14C65.8541 13.739 66.1477 13.5197 66.47 13.35C66.7135 13.221 66.9844 13.1524 67.26 13.15C67.4808 13.1511 67.6989 13.1989 67.9 13.29C68.103 13.3804 68.2864 13.5095 68.44 13.67L70.44 15.79C70.7458 16.1087 70.9237 16.5286 70.94 16.97C70.913 17.3036 70.8068 17.6258 70.63 17.91C70.4508 18.1926 70.2076 18.429 69.92 18.6L64 22.77C64.5591 23.9939 64.9719 25.2794 65.23 26.6C65.528 28.0981 65.6721 29.6226 65.66 31.15C65.7077 33.6078 65.353 36.0568 64.61 38.4C63.3995 42.1579 60.8374 45.3329 57.42 47.31C55.7837 48.2689 54.0333 49.0181 52.21 49.54C50.3331 50.087 48.4127 50.4718 46.47 50.69C44.5436 50.8975 42.6075 51.001 40.67 51V51ZM54.22 27C54.078 26.8296 54.0065 26.6114 54.02 26.39C54.0189 26.2354 54.0495 26.0823 54.11 25.94C54.1741 25.7968 54.2658 25.6676 54.38 25.56L57 22.86C56.4683 22.4542 55.8591 22.1615 55.21 22C54.5829 21.837 53.9379 21.7531 53.29 21.75C52.5569 21.7669 51.8285 21.8709 51.12 22.06C50.2575 22.2927 49.4713 22.7479 48.84 23.38C48.0231 24.2327 47.4079 25.2579 47.04 26.38C46.4939 28.04 46.2468 29.7837 46.31 31.53C46.2605 33.266 46.4592 35.0002 46.9 36.68C47.1763 37.789 47.7108 38.8169 48.46 39.68C49.066 40.319 49.8383 40.7762 50.69 41C51.5405 41.2115 52.4136 41.3189 53.29 41.32C54.1377 41.3204 54.9794 41.1784 55.78 40.9C56.6226 40.5757 57.3571 40.0214 57.9 39.3C58.5887 38.4075 59.095 37.3881 59.39 36.3C59.8083 34.6674 60.0001 32.9849 59.96 31.3C60.0026 29.607 59.7695 27.9182 59.27 26.3L56.57 28.12C56.379 28.2531 56.1527 28.3262 55.92 28.33C55.7601 28.3306 55.6023 28.2929 55.46 28.22C55.3143 28.1513 55.1874 28.0483 55.09 27.92L54.22 27Z" fill="#FFC814"/>
</svg>
