<svg width="1440" height="554" viewBox="0 0 1440 554" fill="none" xmlns="http://www.w3.org/2000/svg">
<path d="M0 0H1440V355.067C1440 355.067 1181.6 686.095 822.222 493.654C822.222 493.654 654.844 395.234 284.822 459.552C222.616 470.641 158.5 462.035 101.422 434.936C65.3111 417.673 28.2889 391.502 0 352.378V0Z" fill="#FEE48F"/>
<path d="M0 0H1440V283.418C1440 283.418 1181.6 614.402 822.222 422.117C822.222 422.117 654.844 323.697 284.822 388.014C222.616 399.103 158.5 390.497 101.422 363.398C65.3111 345.913 28.2889 319.92 0 280.73V0Z" fill="#FFDD6C"/>
<path d="M0 0H1440V215.279C1440 215.279 1181.6 546.308 822.222 353.845C822.222 353.845 654.844 255.425 284.822 319.764C222.616 330.843 158.503 322.238 101.422 295.148C65.3111 277.708 28.2889 251.693 0 212.591V0Z" fill="#FFD446"/>
<g filter="url(#filter0_d_1611_433)">
<path d="M662.239 351.777L647.997 347.757L647.4 349.872L661.642 353.892L662.239 351.777Z" fill="#E1E2E2"/>
<path d="M647.998 347.757L647.796 345L662.946 349.277L662.24 351.777L647.998 347.757Z" fill="#F0F0F1"/>
<path d="M653.624 382.301L639.382 378.281L639.978 376.166L654.22 380.186L653.624 382.301Z" fill="#E1E2E2"/>
<path d="M639.382 378.281L637.768 380.525L652.918 384.801L653.624 382.301L639.382 378.281Z" fill="#F0F0F1"/>
<path d="M662.239 351.777L676.482 355.797L675.885 357.912L661.642 353.892L662.239 351.777Z" fill="#DCDDDC"/>
<path d="M676.482 355.797L678.096 353.552L662.945 349.276L662.239 351.777L676.482 355.797Z" fill="#EAEAEB"/>
<path d="M653.624 382.301L667.866 386.321L668.463 384.206L654.221 380.186L653.624 382.301Z" fill="#DCDDDC"/>
<path d="M667.867 386.321L668.069 389.078L652.918 384.801L653.624 382.301L667.867 386.321Z" fill="#EAEAEB"/>
<path d="M646.365 362.787L646.375 363.206L645.511 363.571L646.097 364.193L645.383 364.296L645.878 364.969L641.073 372.288L639.979 376.166L654.221 380.186L656.848 370.878L646.365 362.787Z" fill="#FDD836"/>
<path d="M661.642 353.891L647.4 349.871L646.167 354.241L646.171 354.448L658.746 364.154L661.642 353.891Z" fill="#FDD836"/>
<path d="M669.312 372.31L669.289 371.576L670.063 371.261L669.508 370.8L670.332 370.576L669.786 369.813L674.652 362.281L675.885 357.911L661.642 353.891L658.746 364.154L669.312 372.31Z" fill="#F7D335"/>
<path d="M654.221 380.186L668.463 384.206L669.474 380.624L656.848 370.878L654.221 380.186Z" fill="#F7D335"/>
<path d="M658.745 364.154L646.171 354.448L646.365 362.787L656.848 370.877L658.745 364.154Z" fill="#F0F0F1"/>
<path d="M669.312 372.31L658.745 364.155L656.848 370.878L669.474 380.624L669.558 380.328L669.312 372.31Z" fill="#EAEAEB"/>
</g>
<g filter="url(#filter1_d_1611_433)">
<path fill-rule="evenodd" clip-rule="evenodd" d="M235.688 399.376C246.562 399.376 255.376 390.561 255.376 379.688C255.376 368.815 246.562 360 235.688 360V375.056C238.247 375.056 240.321 377.13 240.321 379.688C240.321 382.246 238.247 384.32 235.688 384.32V399.376Z" fill="#EAEAEB"/>
<path fill-rule="evenodd" clip-rule="evenodd" d="M235.688 360.001C224.815 360.001 216 368.816 216 379.689C216 390.562 224.815 399.377 235.688 399.377V384.321C233.13 384.321 231.056 382.247 231.056 379.689C231.056 377.13 233.13 375.056 235.688 375.056V360.001Z" fill="#F0F0F1"/>
<path fill-rule="evenodd" clip-rule="evenodd" d="M235.688 394.743C244.003 394.743 250.744 388.003 250.744 379.688C250.744 371.373 244.003 364.632 235.688 364.632V375.055C238.247 375.055 240.321 377.13 240.321 379.688C240.321 382.246 238.247 384.32 235.688 384.32V394.743Z" fill="#F7D335"/>
<path fill-rule="evenodd" clip-rule="evenodd" d="M235.688 364.634C227.373 364.634 220.633 371.374 220.633 379.689C220.633 388.004 227.373 394.745 235.688 394.745V384.322C233.13 384.322 231.056 382.248 231.056 379.689C231.056 377.131 233.13 375.057 235.688 375.057V364.634Z" fill="#FDD836"/>
<path d="M229.708 372.796C229.793 372.656 229.771 372.476 229.654 372.362L229.377 372.091C229.03 371.754 228.495 371.799 228.239 372.209C228.007 372.582 227.735 373.035 227.489 373.451C227.104 374.101 226.778 374.667 226.749 374.718C226.747 374.721 226.745 374.723 226.742 374.725C226.73 374.733 226.73 374.752 226.743 374.76L227.369 375.144C227.745 375.375 228.238 375.257 228.47 374.88L228.843 374.271L229.708 372.796Z" fill="#494949"/>
<path d="M240.204 370.624C240.342 370.532 240.403 370.36 240.353 370.202L240.293 370.009C240.174 369.632 239.755 369.468 239.424 369.684C239.035 369.938 238.546 370.268 238.104 370.571C237.478 370.998 236.94 371.373 236.895 371.404C236.893 371.406 236.891 371.407 236.888 371.408C236.873 371.411 236.867 371.429 236.875 371.442L237.189 371.913C237.38 372.2 237.767 372.278 238.055 372.087L238.796 371.593L240.204 370.624Z" fill="#494949"/>
<path d="M245.854 378.826C246.019 378.839 246.173 378.74 246.231 378.585L246.302 378.395C246.44 378.025 246.21 377.638 245.816 377.605C245.354 377.566 244.765 377.526 244.231 377.493C243.474 377.446 242.819 377.411 242.764 377.408C242.762 377.408 242.76 377.407 242.757 377.406C242.743 377.4 242.727 377.409 242.726 377.425L242.683 377.989C242.658 378.333 242.915 378.633 243.259 378.658L244.148 378.725L245.854 378.826Z" fill="#494949"/>
<path d="M247.022 385.57C247.122 385.438 247.124 385.255 247.025 385.122L246.905 384.959C246.67 384.641 246.22 384.623 245.978 384.935C245.693 385.301 245.338 385.773 245.019 386.203C244.567 386.812 244.18 387.341 244.148 387.386C244.146 387.388 244.145 387.389 244.142 387.391C244.129 387.399 244.129 387.418 244.141 387.427L244.591 387.771C244.865 387.98 245.257 387.927 245.466 387.653L246.006 386.945L247.022 385.57Z" fill="#494949"/>
<path d="M227.83 386.099C227.961 386.201 228.143 386.204 228.277 386.106L228.441 385.987C228.761 385.754 228.782 385.305 228.472 385.06C228.108 384.772 227.639 384.414 227.211 384.092C226.607 383.635 226.08 383.244 226.036 383.211C226.034 383.21 226.032 383.208 226.031 383.206C226.022 383.193 226.004 383.192 225.994 383.204L225.647 383.651C225.436 383.924 225.486 384.316 225.758 384.528L226.462 385.073L227.83 386.099Z" fill="#494949"/>
<path d="M238.888 391.222C239.054 391.222 239.2 391.113 239.247 390.954L239.304 390.76C239.415 390.381 239.158 390.012 238.762 390.007C238.299 390.001 237.708 390.004 237.173 390.009C236.415 390.016 235.759 390.028 235.705 390.029C235.702 390.029 235.7 390.028 235.697 390.027C235.683 390.022 235.667 390.033 235.667 390.048L235.665 390.614C235.664 390.959 235.943 391.24 236.288 391.241L237.179 391.244L238.888 391.222Z" fill="#494949"/>
</g>
<g filter="url(#filter2_d_1611_433)">
<path d="M419.118 357.472L435.188 355.958L434.695 350.717L434.672 350.475L418.601 351.989L419.118 357.472Z" fill="#FDD836"/>
<path d="M450.495 348.985L434.671 350.475L435.188 355.958L451.011 354.468L450.495 348.985Z" fill="#F7D335"/>
<path d="M434.266 346.169L423.515 347.181L422.267 351.638L434.672 350.472L434.269 346.202L434.266 346.169Z" fill="#F0F0F1"/>
<path d="M445.017 345.156L434.266 346.169L434.269 346.202L434.671 350.472L447.116 349.303L445.017 345.156Z" fill="#EAEAEB"/>
<path d="M422.721 357.101L424.281 362.754C428.035 361.94 431.836 361.351 435.662 360.992L435.187 355.948L422.721 357.101Z" fill="#F0F0F1"/>
<path d="M447.643 354.753L439.635 355.537L435.184 355.949L435.659 360.992C442.494 360.341 447.171 360.598 447.171 360.598L447.643 354.753Z" fill="#EAEAEB"/>
<path d="M424.28 362.754L427.991 375.888C431.166 376.347 434.318 376.278 437.076 375.994L435.629 360.637C429.222 361.316 424.28 362.754 424.28 362.754Z" fill="#FDD836"/>
<path d="M447.174 360.597C443.273 360.115 439.22 360.256 435.629 360.637L437.075 375.994C442.212 375.466 445.981 374.194 445.981 374.194L447.174 360.597Z" fill="#F7D335"/>
<path d="M427.992 375.889L429.468 381.114L437.487 380.359L437.076 375.995C431.544 376.56 427.992 375.889 427.992 375.889Z" fill="#F0F0F1"/>
<path d="M445.981 374.194C443.079 375.08 440.096 375.683 437.075 375.994L437.487 380.358L445.506 379.603L445.981 374.194Z" fill="#DCDDDC"/>
<path d="M436.878 341.237L436.022 340.276L434.114 341.904C434.114 341.904 433.335 342.466 433.306 342.948C433.29 343.211 433.384 344.161 433.474 344.966C433.549 345.647 433.62 346.231 433.62 346.231L433.61 346.261L434.269 346.199L434.958 346.134L434.835 344.83L434.667 343.362L434.895 343.132L436.878 341.237Z" fill="#494949"/>
<path d="M436.022 340.276C436.449 340.219 437.124 340.319 436.878 341.237L436.022 340.276Z" fill="#494949"/>
</g>
<path opacity="0.5" d="M423.024 397.388L421.441 397.601L420.998 394.308L417.911 394.723L418.353 398.016L416.77 398.229L415.737 390.545L417.32 390.332L417.739 393.446L420.826 393.031L420.408 389.917L421.991 389.704L423.024 397.388ZM427.621 396.77C427.532 396.642 427.458 396.479 427.399 396.279C427.085 396.74 426.632 397.01 426.041 397.09C425.482 397.165 424.995 397.066 424.582 396.792C424.173 396.517 423.935 396.134 423.869 395.641C423.788 395.036 423.949 394.541 424.352 394.158C424.759 393.773 425.386 393.523 426.233 393.405L426.935 393.311L426.891 392.984C426.856 392.72 426.759 392.518 426.6 392.378C426.445 392.238 426.222 392.187 425.93 392.226C425.673 392.261 425.479 392.35 425.348 392.493C425.22 392.635 425.171 392.814 425.199 393.028L423.674 393.233C423.63 392.903 423.691 392.583 423.857 392.274C424.023 391.965 424.282 391.706 424.634 391.498C424.985 391.286 425.393 391.149 425.857 391.086C426.561 390.992 427.142 391.094 427.602 391.394C428.064 391.69 428.338 392.159 428.424 392.799L428.757 395.274C428.834 395.815 428.964 396.215 429.149 396.473L429.162 396.563L427.621 396.77ZM426.217 395.879C426.442 395.849 426.643 395.771 426.819 395.647C426.996 395.52 427.118 395.365 427.187 395.184L427.055 394.203L426.485 394.279C425.722 394.382 425.351 394.7 425.372 395.235L425.379 395.325C425.405 395.515 425.493 395.663 425.643 395.768C425.793 395.873 425.984 395.91 426.217 395.879ZM435.072 395.768L433.542 395.974L432.94 391.499L431.03 391.756L431.631 396.231L430.106 396.436L429.339 390.726L434.305 390.058L435.072 395.768ZM438.912 389.439L440.437 389.234L441.205 394.944L439.679 395.149L439.206 391.624L437.769 395.406L436.239 395.612L435.471 389.901L437.001 389.696L437.475 393.216L438.912 389.439ZM446.507 389.664L444.676 389.91L445.279 394.396L443.748 394.602L443.145 390.116L441.346 390.358L441.181 389.134L446.342 388.44L446.507 389.664ZM447.094 391.192C447.018 390.625 447.059 390.106 447.217 389.633C447.376 389.161 447.643 388.776 448.018 388.478C448.397 388.18 448.858 387.994 449.4 387.921C450.17 387.818 450.83 387.969 451.379 388.375C451.931 388.781 452.29 389.385 452.455 390.186L452.518 390.576C452.636 391.452 452.486 392.188 452.068 392.785C451.65 393.379 451.03 393.731 450.206 393.841C449.383 393.952 448.69 393.777 448.126 393.315C447.566 392.853 447.225 392.168 447.103 391.26L447.094 391.192ZM448.634 391.098C448.707 391.639 448.865 392.041 449.107 392.302C449.35 392.56 449.661 392.663 450.041 392.612C450.41 392.562 450.68 392.383 450.85 392.073C451.019 391.76 451.062 391.292 450.978 390.67C450.907 390.138 450.747 389.741 450.501 389.477C450.254 389.213 449.942 389.106 449.566 389.156C449.193 389.207 448.924 389.391 448.759 389.711C448.594 390.027 448.552 390.489 448.634 391.098ZM455.788 390.84L455.176 390.922L455.459 393.028L453.934 393.233L453.166 387.523L454.691 387.318L454.98 389.466L455.524 389.392L456.48 387.077L458.407 386.818L456.904 389.787L459.348 392.505L457.317 392.778L455.788 390.84Z" fill="#494949"/>
<path opacity="0.5" d="M638.047 392.239L637.297 391.363C637.059 391.39 636.604 391.356 636.13 391.249L632.243 390.368C631.913 390.293 631.249 390.108 630.961 389.996L630.607 391.56C630.841 391.601 631.461 391.673 631.924 391.777L635.657 392.623C635.237 393.35 634.318 394.288 633.405 394.949C632.108 395.871 630.096 396.827 628.174 397.086L629.038 398.533C630.709 398.159 632.433 397.345 633.88 396.377C634.688 397.613 635.457 398.968 635.949 400.122L637.451 399.316C636.981 398.376 635.968 396.665 635.092 395.471C636.055 394.647 636.938 393.608 637.507 392.834C637.656 392.637 637.932 392.34 638.047 392.239ZM644.909 393.84L644.634 395.051L641.771 394.403C641.331 394.303 640.889 394.156 640.566 394.048L640.222 395.568C640.568 395.623 641.016 395.69 641.501 395.8L644.309 396.436C643.799 398.277 642.702 399.696 640.321 400.187L641.457 401.509C644.158 400.628 645.261 398.979 645.828 396.781L648.306 397.342C648.746 397.442 649.278 397.597 649.507 397.661L649.846 396.163C649.61 396.133 649.138 396.072 648.631 395.957L646.154 395.396L646.426 394.195C646.505 393.843 646.665 393.242 646.808 392.916L645.057 392.519C645.079 392.883 644.993 393.466 644.909 393.84ZM656.238 397.334L654.83 397.466C654.976 398.101 655.158 399.543 655.168 400.113L656.594 399.95C656.555 399.408 656.34 397.854 656.238 397.334ZM660.119 399.058L658.689 398.213C658.245 399.56 657.385 400.904 656.424 401.671C655.251 402.609 653.53 403.099 652.247 403.144L653.136 404.584C654.534 404.391 656.12 403.778 657.444 402.689C658.412 401.89 659.134 400.849 659.672 399.802C659.788 399.597 659.907 399.381 660.119 399.058ZM653.551 397.338L652.122 397.512C652.277 398.057 652.495 399.646 652.548 400.283L654.006 400.081C653.925 399.414 653.699 397.962 653.551 397.338ZM668.462 397.95L666.974 397.058C666.79 397.409 666.444 397.864 666.216 398.101C665.451 398.924 664.171 400.127 661.977 400.869L663.004 402.062C664.25 401.569 665.427 400.817 666.382 400.026L669.476 400.727C669.113 401.513 668.175 402.69 667.232 403.379C666.027 404.252 664.587 404.933 662.178 405.093L663.213 406.555C665.467 406.209 667.029 405.498 668.365 404.458C669.635 403.449 670.595 402.127 671.114 401.214C671.265 400.959 671.489 400.685 671.657 400.504L670.691 399.555C670.421 399.575 670.045 399.548 669.703 399.47L667.49 398.969C667.506 398.949 667.52 398.941 667.536 398.921C667.723 398.709 668.121 398.278 668.462 397.95Z" fill="#494949"/>
<g opacity="0.5">
<path d="M224.593 413.18C224.814 413.273 225.05 413.329 225.29 413.345C225.571 413.369 225.855 413.367 226.136 413.339C226.415 413.308 226.69 413.248 226.956 413.159C227.195 413.092 227.421 412.986 227.626 412.845C227.605 412.737 227.544 412.641 227.455 412.577C227.348 412.489 227.223 412.425 227.089 412.388C226.917 412.34 226.74 412.309 226.562 412.295C226.359 412.285 226.157 412.301 225.958 412.342L225.745 411.005L230.236 410.29C230.185 410.072 230.089 409.866 229.953 409.687C229.818 409.509 229.646 409.36 229.45 409.252C228.915 408.957 228.29 408.874 227.697 409.018L227.331 409.077L227.143 407.894C227.12 407.715 227.114 407.534 227.126 407.354C227.138 407.148 227.183 406.945 227.257 406.752C227.336 406.535 227.446 406.332 227.585 406.147C227.754 405.928 227.962 405.742 228.197 405.596L230.342 404.269L230.948 405.346L228.687 406.751C228.623 406.795 228.568 406.85 228.525 406.915C228.479 406.981 228.44 407.054 228.412 407.13C228.38 407.205 228.36 407.285 228.351 407.366C228.358 407.434 228.368 407.502 228.383 407.568C229.154 407.584 229.896 407.866 230.482 408.368C230.998 408.826 231.386 409.41 231.609 410.062L231.783 410.034L231.997 411.381L228.641 411.915C228.751 411.995 228.846 412.093 228.924 412.205C228.987 412.312 229.039 412.427 229.077 412.545C229.105 412.666 229.125 412.788 229.135 412.911C229.155 413.036 229.174 413.161 229.193 413.276C229.058 413.423 228.911 413.558 228.754 413.681C228.561 413.824 228.358 413.952 228.145 414.064C227.899 414.196 227.643 414.309 227.38 414.403C227.071 414.507 226.755 414.593 226.436 414.662C225.556 414.86 224.637 414.779 223.806 414.43C223.5 414.28 223.23 414.064 223.018 413.798C222.805 413.532 222.653 413.222 222.575 412.89C222.371 411.999 222.368 411.073 222.567 410.18L223.923 410.398C223.904 410.526 223.889 410.676 223.877 410.849C223.854 411.024 223.842 411.2 223.842 411.377C223.834 411.56 223.84 411.744 223.861 411.926C223.869 412.105 223.898 412.282 223.945 412.455C224 412.612 224.08 412.759 224.182 412.891C224.289 413.024 224.431 413.124 224.593 413.18Z" fill="#494949"/>
<path d="M237.014 410.316C236.727 410.237 236.475 410.065 236.295 409.829C236.225 410.026 236.116 410.207 235.976 410.363C235.835 410.511 235.672 410.637 235.493 410.735C235.32 410.827 235.133 410.886 234.939 410.912C234.75 410.946 234.555 410.943 234.366 410.905C234.181 410.876 234.005 410.807 233.851 410.701C233.695 410.593 233.569 410.447 233.487 410.276C233.377 410.529 233.201 410.747 232.977 410.909C232.67 411.168 232.298 411.337 231.901 411.396L231.688 410.059C231.844 410.039 231.994 409.985 232.127 409.901C232.26 409.816 232.373 409.704 232.458 409.572C232.641 409.295 232.714 408.96 232.664 408.632L232.419 407.093L233.678 406.893L233.943 408.556C233.968 408.741 234.017 408.923 234.088 409.095C234.136 409.214 234.211 409.32 234.305 409.406C234.376 409.479 234.466 409.529 234.565 409.552C234.66 409.556 234.755 409.541 234.844 409.507C234.945 409.498 235.043 409.462 235.125 409.402C235.208 409.342 235.272 409.261 235.312 409.167C235.416 408.883 235.428 408.575 235.349 408.283L235.092 406.668L236.342 406.469L236.587 408.007C236.627 408.333 236.795 408.629 237.053 408.83C237.177 408.931 237.321 409.004 237.475 409.044C237.63 409.084 237.791 409.091 237.948 409.063L238.111 409.037L237.631 406.017L238.871 405.82L239.565 410.176L238.132 410.404C237.757 410.464 237.374 410.434 237.014 410.316ZM234.032 405.151C234.017 405.058 234.022 404.963 234.047 404.872C234.066 404.781 234.103 404.695 234.154 404.618C234.211 404.549 234.278 404.488 234.353 404.439C234.431 404.387 234.52 404.353 234.613 404.338C234.709 404.323 234.807 404.327 234.901 404.352C234.986 404.378 235.068 404.415 235.145 404.461C235.218 404.518 235.279 404.588 235.326 404.669C235.378 404.747 235.412 404.836 235.427 404.929C235.442 405.021 235.436 405.116 235.412 405.207C235.394 405.296 235.357 405.379 235.303 405.451C235.248 405.524 235.181 405.588 235.106 405.64C235.017 405.674 234.922 405.689 234.827 405.685C234.741 405.718 234.65 405.733 234.558 405.727C234.469 405.704 234.386 405.664 234.312 405.609C234.238 405.557 234.177 405.489 234.133 405.411C234.081 405.332 234.047 405.243 234.032 405.151ZM234.523 403.712C234.508 403.619 234.513 403.524 234.538 403.433C234.561 403.347 234.598 403.265 234.647 403.189C234.687 403.121 234.741 403.062 234.806 403.016C234.896 402.956 234.998 402.92 235.105 402.909C235.201 402.894 235.299 402.898 235.393 402.923C235.482 402.938 235.566 402.976 235.637 403.032C235.71 403.087 235.774 403.153 235.826 403.228C235.878 403.307 235.912 403.395 235.927 403.488C235.943 403.581 235.938 403.676 235.912 403.767C235.888 403.856 235.852 403.941 235.804 404.021C235.748 404.09 235.681 404.151 235.606 404.2C235.524 404.252 235.433 404.287 235.337 404.302C235.229 404.327 235.117 404.325 235.01 404.295C234.924 404.271 234.841 404.234 234.766 404.186C234.709 404.121 234.661 404.049 234.623 403.972C234.571 403.894 234.536 403.805 234.523 403.712ZM235.551 404.909C235.536 404.816 235.541 404.721 235.566 404.63C235.59 404.541 235.626 404.456 235.674 404.377C235.732 404.309 235.799 404.249 235.872 404.197C235.95 404.145 236.039 404.111 236.132 404.097C236.228 404.08 236.326 404.084 236.42 404.11C236.507 404.134 236.589 404.17 236.664 404.219C236.74 404.273 236.802 404.344 236.845 404.427C236.897 404.505 236.931 404.594 236.946 404.687C236.961 404.78 236.956 404.875 236.931 404.965C236.918 405.055 236.88 405.139 236.822 405.209C236.769 405.284 236.702 405.349 236.625 405.398C236.537 405.433 236.441 405.448 236.346 405.443C236.261 405.476 236.169 405.491 236.077 405.486C235.989 405.46 235.906 405.42 235.831 405.367C235.76 405.312 235.699 405.245 235.652 405.169C235.6 405.09 235.566 405.002 235.551 404.909Z" fill="#494949"/>
<path d="M241.602 409.842L240.409 410.031L239.241 402.694L240.482 402.497L241.602 409.842Z" fill="#494949"/>
<path d="M243.689 405.053L244.958 404.851L245.264 406.774C245.28 406.959 245.336 407.139 245.427 407.3C245.504 407.424 245.609 407.529 245.732 407.607C245.856 407.677 245.994 407.719 246.136 407.73C246.292 407.72 246.447 407.696 246.598 407.656L246.815 409.022C246.489 409.072 246.157 409.075 245.831 409.031C245.605 408.999 245.393 408.907 245.216 408.764C245.148 409.021 245.048 409.268 244.919 409.501C244.787 409.75 244.612 409.975 244.404 410.165C244.171 410.378 243.906 410.553 243.619 410.684C243.264 410.841 242.89 410.947 242.506 410.999L242.305 409.74C242.565 409.697 242.818 409.62 243.058 409.511C243.296 409.401 243.503 409.232 243.66 409.021C243.835 408.771 243.955 408.487 244.01 408.186C244.077 407.765 244.072 407.336 243.995 406.917L243.689 405.053Z" fill="#494949"/>
<path d="M249.199 408.386C248.901 408.3 248.634 408.13 248.431 407.897C248.305 408.183 248.102 408.427 247.843 408.602C247.503 408.831 247.115 408.98 246.709 409.039L246.497 407.702C246.657 407.683 246.812 407.631 246.952 407.549C247.092 407.468 247.213 407.358 247.309 407.228C247.481 406.941 247.542 406.602 247.482 406.273L247.2 404.504L248.46 404.303L248.742 406.073C248.781 406.406 248.946 406.711 249.203 406.926C249.338 407.021 249.49 407.087 249.652 407.121C249.813 407.155 249.98 407.155 250.141 407.122L250.354 408.458C249.968 408.521 249.573 408.496 249.199 408.386ZM247.363 410.542C247.348 410.449 247.353 410.354 247.378 410.263C247.395 410.175 247.432 410.091 247.487 410.019C247.553 409.94 247.632 409.874 247.722 409.824C247.79 409.782 247.866 409.753 247.945 409.739C248.041 409.724 248.139 409.728 248.233 409.752C248.321 409.778 248.404 409.819 248.479 409.871C248.553 409.923 248.614 409.99 248.658 410.069C248.71 410.148 248.744 410.236 248.759 410.329C248.775 410.422 248.77 410.517 248.744 410.608C248.724 410.698 248.688 410.785 248.636 410.862C248.578 410.929 248.511 410.989 248.438 411.041C248.356 411.093 248.264 411.128 248.168 411.143C248.076 411.158 247.981 411.153 247.89 411.128C247.804 411.102 247.723 411.065 247.646 411.019C247.573 410.962 247.511 410.892 247.465 410.811C247.41 410.731 247.375 410.638 247.363 410.542ZM248.882 410.3C248.867 410.207 248.872 410.112 248.897 410.021C248.918 409.934 248.955 409.851 249.006 409.777C249.061 409.704 249.127 409.64 249.203 409.588C249.282 409.54 249.372 409.509 249.464 409.497C249.56 409.481 249.658 409.485 249.752 409.511C249.841 409.534 249.925 409.574 249.998 409.629C250.075 409.68 250.14 409.747 250.187 409.826C250.231 409.908 250.262 409.996 250.278 410.088C250.292 410.179 250.291 410.273 250.273 410.364C250.25 410.456 250.21 410.543 250.156 410.62C250.099 410.689 250.032 410.75 249.957 410.799C249.876 410.853 249.784 410.887 249.688 410.901C249.595 410.916 249.5 410.911 249.409 410.886C249.324 410.86 249.242 410.823 249.165 410.777C249.095 410.717 249.034 410.647 248.984 410.57C248.93 410.489 248.895 410.397 248.882 410.3Z" fill="#494949"/>
<path d="M250.112 407.127L251.41 406.92L250.933 403.92L252.183 403.721L252.873 408.058L250.325 408.463L250.112 407.127ZM250.571 410.011C250.558 409.92 250.56 409.826 250.577 409.735C250.623 409.542 250.741 409.375 250.907 409.268C251.07 409.176 251.261 409.146 251.445 409.182C251.537 409.205 251.623 409.245 251.7 409.299C251.77 409.356 251.83 409.423 251.88 409.498C251.932 409.576 251.966 409.665 251.98 409.758C251.997 409.853 251.993 409.952 251.967 410.046C251.943 410.132 251.907 410.214 251.858 410.29C251.798 410.36 251.728 410.421 251.65 410.471C251.572 410.522 251.483 410.557 251.39 410.572C251.297 410.586 251.202 410.581 251.112 410.556C251.025 410.533 250.943 410.496 250.868 410.447C250.793 410.395 250.728 410.328 250.679 410.251C250.639 410.178 250.61 410.099 250.592 410.018L250.571 410.011ZM251.485 411.227C251.471 411.135 251.473 411.041 251.49 410.95C251.539 410.772 251.651 410.617 251.805 410.515C251.969 410.423 252.16 410.393 252.344 410.429C252.522 410.479 252.676 410.591 252.778 410.745C252.83 410.823 252.865 410.912 252.879 411.005C252.896 411.143 252.875 411.283 252.816 411.409C252.758 411.535 252.665 411.642 252.549 411.718C252.385 411.81 252.194 411.84 252.01 411.804C251.832 411.754 251.678 411.642 251.576 411.488C251.538 411.408 251.514 411.322 251.505 411.233L251.485 411.227ZM252.091 409.77C252.076 409.677 252.081 409.582 252.106 409.491C252.126 409.403 252.163 409.32 252.215 409.247C252.268 409.159 252.34 409.084 252.426 409.026C252.513 408.997 252.604 408.983 252.695 408.983C252.785 408.954 252.879 408.939 252.974 408.939C253.062 408.965 253.145 409.005 253.22 409.058C253.292 409.111 253.353 409.178 253.399 409.256C253.451 409.334 253.485 409.423 253.5 409.516C253.517 409.612 253.512 409.71 253.486 409.804C253.467 409.892 253.43 409.975 253.377 410.048C253.319 410.116 253.252 410.176 253.179 410.227C253.097 410.28 253.006 410.315 252.91 410.329C252.817 410.345 252.722 410.34 252.631 410.315C252.545 410.291 252.462 410.254 252.387 410.206C252.315 410.152 252.254 410.085 252.208 410.007C252.161 409.937 252.129 409.859 252.112 409.776L252.091 409.77Z" fill="#494949"/>
</g>
<defs>
<filter id="filter0_d_1611_433" x="634.945" y="343.589" width="45.973" height="49.7221" filterUnits="userSpaceOnUse" color-interpolation-filters="sRGB">
<feFlood flood-opacity="0" result="BackgroundImageFix"/>
<feColorMatrix in="SourceAlpha" type="matrix" values="0 0 0 0 0 0 0 0 0 0 0 0 0 0 0 0 0 0 127 0" result="hardAlpha"/>
<feOffset dy="1.41131"/>
<feGaussianBlur stdDeviation="1.41131"/>
<feComposite in2="hardAlpha" operator="out"/>
<feColorMatrix type="matrix" values="0 0 0 0 0.705882 0 0 0 0 0.713726 0 0 0 0 0.709804 0 0 0 0.68 0"/>
<feBlend mode="normal" in2="BackgroundImageFix" result="effect1_dropShadow_1611_433"/>
<feBlend mode="normal" in="SourceGraphic" in2="effect1_dropShadow_1611_433" result="shape"/>
</filter>
<filter id="filter1_d_1611_433" x="213.418" y="358.709" width="44.5403" height="44.5408" filterUnits="userSpaceOnUse" color-interpolation-filters="sRGB">
<feFlood flood-opacity="0" result="BackgroundImageFix"/>
<feColorMatrix in="SourceAlpha" type="matrix" values="0 0 0 0 0 0 0 0 0 0 0 0 0 0 0 0 0 0 127 0" result="hardAlpha"/>
<feOffset dy="1.29103"/>
<feGaussianBlur stdDeviation="1.29103"/>
<feComposite in2="hardAlpha" operator="out"/>
<feColorMatrix type="matrix" values="0 0 0 0 0.705882 0 0 0 0 0.713726 0 0 0 0 0.709804 0 0 0 0.68 0"/>
<feBlend mode="normal" in2="BackgroundImageFix" result="effect1_dropShadow_1611_433"/>
<feBlend mode="normal" in="SourceGraphic" in2="effect1_dropShadow_1611_433" result="shape"/>
</filter>
<filter id="filter2_d_1611_433" x="415.875" y="338.9" width="37.8626" height="46.3035" filterUnits="userSpaceOnUse" color-interpolation-filters="sRGB">
<feFlood flood-opacity="0" result="BackgroundImageFix"/>
<feColorMatrix in="SourceAlpha" type="matrix" values="0 0 0 0 0 0 0 0 0 0 0 0 0 0 0 0 0 0 127 0" result="hardAlpha"/>
<feOffset dy="1.36317"/>
<feGaussianBlur stdDeviation="1.36317"/>
<feComposite in2="hardAlpha" operator="out"/>
<feColorMatrix type="matrix" values="0 0 0 0 0.705882 0 0 0 0 0.713726 0 0 0 0 0.709804 0 0 0 0.68 0"/>
<feBlend mode="normal" in2="BackgroundImageFix" result="effect1_dropShadow_1611_433"/>
<feBlend mode="normal" in="SourceGraphic" in2="effect1_dropShadow_1611_433" result="shape"/>
</filter>
</defs>
</svg>
