<svg width="127" height="58" viewBox="0 0 127 58" fill="none" xmlns="http://www.w3.org/2000/svg">
<path d="M19.899 30.9577C18.2684 30.9558 16.6399 30.841 15.0252 30.6142C13.4546 30.3972 11.9072 30.0369 10.4023 29.5376C10.3929 29.6387 10.3929 29.7404 10.4023 29.8415V30.1453C10.395 30.7571 10.5048 31.3647 10.7259 31.9352C10.9435 32.4904 11.2925 32.9845 11.7429 33.3751C12.2603 33.8118 12.8631 34.1358 13.5128 34.3263C14.4031 34.5829 15.3272 34.7031 16.2535 34.6829C17.3578 34.6878 18.461 34.6172 19.5556 34.4715C20.566 34.3328 21.5368 34.1809 22.5208 34.0224C23.5048 33.8639 24.4624 33.712 25.4398 33.5733C26.4723 33.4268 27.5142 33.3561 28.557 33.3619C29.6147 33.3624 30.6637 33.5526 31.6543 33.9234C32.6487 34.2915 33.5617 34.8501 34.3422 35.568C35.1462 36.3098 35.7891 37.2091 36.2309 38.21C36.7234 39.3497 36.9666 40.5815 36.9442 41.8229C36.9576 42.8875 36.8423 43.9499 36.6008 44.9868C36.3762 45.8916 36.1451 46.7503 35.9073 47.5693C35.8446 47.7065 35.7647 47.8352 35.6696 47.9524C35.5834 48.0369 35.4793 48.101 35.3649 48.1399C35.2506 48.1787 35.1291 48.1914 35.0092 48.177H32.5987C32.2949 48.177 32.1034 48.1109 32.0175 47.9722C31.9317 47.8335 31.8656 47.7146 31.826 47.6288C31.4166 46.616 29.836 46.1118 27.0843 46.1162C25.9099 46.1134 24.7365 46.184 23.5709 46.3276C22.4086 46.4641 21.2242 46.6138 20.0179 46.7767C18.8115 46.9396 17.559 47.0894 16.2601 47.2259C14.8959 47.3723 13.5245 47.4429 12.1524 47.4372C10.404 47.4899 8.66619 47.1491 7.06723 46.4399C5.77557 45.8459 4.62686 44.9809 3.69914 43.9035C2.85581 42.9179 2.22012 41.7722 1.83018 40.535C1.45797 39.4094 1.26193 38.233 1.24902 37.0475C1.23657 35.9555 1.37209 34.8667 1.65187 33.8111C1.8979 32.8925 2.25031 32.0058 2.70192 31.169C3.11981 30.4058 3.62271 29.6924 4.20105 29.0422C4.7301 28.4391 5.29 27.8637 5.87849 27.3183C4.10899 26.1063 2.65156 24.4925 1.62545 22.609C0.485091 20.4087 -0.0719879 17.9526 0.00744809 15.4756C-0.0190779 13.7265 0.255702 11.986 0.81975 10.3302C1.8029 7.45661 3.75168 5.01274 6.33418 3.4148C7.62234 2.5979 9.00077 1.93296 10.4419 1.4333C11.9447 0.922159 13.4926 0.555028 15.0648 0.336862C16.6687 0.112963 18.2862 0.000402241 19.9056 0C21.3812 0.000711729 22.8557 0.0756609 24.3238 0.224568C25.8126 0.372323 27.2862 0.646309 28.7287 1.04358C30.1337 1.43583 31.4947 1.97146 32.7902 2.64201C34.0557 3.30004 35.2047 4.16134 36.1913 5.19155L39.7113 1.61163C39.8989 1.40185 40.1226 1.22737 40.3717 1.09643C40.5764 0.991694 40.8023 0.935209 41.0321 0.931309C41.2076 0.93633 41.3804 0.976302 41.5403 1.04888C41.7002 1.12147 41.844 1.22519 41.9633 1.35402L43.5483 3.0317C43.7849 3.28525 43.9211 3.61633 43.9313 3.96301C43.9186 4.23312 43.8382 4.4957 43.6974 4.72655C43.5566 4.9574 43.36 5.1491 43.1256 5.28401L38.4499 8.58652C38.8947 9.55537 39.2249 10.5728 39.4339 11.6182C39.6672 12.8082 39.78 14.0186 39.7707 15.2312C39.8093 17.1776 39.5259 19.117 38.932 20.9709C38.435 22.5018 37.6529 23.9248 36.6272 25.1651C35.6675 26.3117 34.5169 27.2838 33.2261 28.0383C31.9218 28.7985 30.5288 29.3953 29.0787 29.815C27.5867 30.2473 26.0597 30.5479 24.5153 30.7133C22.9824 30.8822 21.4411 30.9637 19.899 30.9577ZM30.6703 11.9221C30.6134 11.8561 30.5701 11.7795 30.5429 11.6968C30.5157 11.614 30.5051 11.5267 30.5118 11.4399C30.5131 11.3159 30.5395 11.1934 30.5895 11.0799C30.6394 10.9663 30.7118 10.8641 30.8024 10.7794L32.8629 8.65257C32.4437 8.34323 31.9681 8.11885 31.4628 7.99207C30.9617 7.86629 30.4472 7.80196 29.9306 7.80052C29.3459 7.80868 28.7645 7.89079 28.2004 8.0449C27.5194 8.23122 26.8982 8.59077 26.3974 9.08851C25.7513 9.75118 25.2616 10.5501 24.9643 11.4267C24.5312 12.7423 24.3344 14.1243 24.3832 15.5086C24.3415 16.8847 24.4994 18.2596 24.8521 19.5905C25.0748 20.4572 25.5004 21.2586 26.0937 21.9286C26.5695 22.4454 27.1839 22.8146 27.8636 22.9921C28.5389 23.165 29.2335 23.2515 29.9306 23.2496C30.6054 23.2506 31.2754 23.1367 31.9119 22.9128C32.5797 22.6704 33.1657 22.2446 33.6025 21.6843C34.1521 20.9652 34.5519 20.1432 34.778 19.2668C35.1162 17.974 35.2696 16.6397 35.2337 15.3038C35.2696 13.9487 35.0845 12.5968 34.6856 11.3012L32.5194 12.8203C32.366 12.9204 32.1875 12.9753 32.0043 12.9788C31.8765 12.9807 31.7502 12.9523 31.6354 12.896C31.5206 12.8398 31.4208 12.7573 31.3439 12.6552L30.6703 11.9221Z" fill="white"/>
<path d="M40.1518 27.9711C40.1494 27.6581 40.1803 27.3457 40.2438 27.0394C40.2942 26.7882 40.4151 26.5571 40.5921 26.3739C40.7926 26.1837 41.0363 26.0465 41.3017 25.9746C41.6875 25.8713 42.0857 25.8243 42.4845 25.8348H49.1214C49.4986 25.8236 49.8753 25.8708 50.2385 25.9746C50.4897 26.051 50.7164 26.1933 50.8956 26.3872C51.0609 26.576 51.1742 26.8055 51.2242 27.0527C51.2826 27.3709 51.3112 27.6941 51.3096 28.0177V29.1558L54.6675 25.8282C54.8284 25.646 55.0514 25.5319 55.2917 25.5087C55.3942 25.5054 55.4959 25.5283 55.5874 25.5753C55.667 25.6175 55.7401 25.6713 55.8043 25.735L56.4614 26.4604C56.5323 26.5235 56.589 26.6014 56.6275 26.6887C56.6661 26.7759 56.6856 26.8706 56.6848 26.9662C56.6828 27.0863 56.6487 27.2036 56.5862 27.3056C56.5078 27.4412 56.4027 27.559 56.2774 27.6517L51.2833 31.5782V39.4113C51.2869 39.7281 51.2605 40.0445 51.2045 40.3563C51.1623 40.6075 51.0454 40.8397 50.8693 41.0218C50.6654 41.2229 50.4108 41.3634 50.1334 41.4278C49.7032 41.5326 49.2614 41.5795 48.8191 41.5675H42.4845C42.0857 41.5781 41.6875 41.531 41.3017 41.4278C41.0342 41.3612 40.7892 41.2233 40.5921 41.0284C40.4151 40.8452 40.2942 40.6141 40.2438 40.3629C40.1792 40.0567 40.1484 39.7443 40.1518 39.4312V27.9711Z" fill="#282625"/>
<path d="M62.9248 41.5695C62.3802 41.5704 61.8362 41.5354 61.2962 41.4647C60.7661 41.3975 60.243 41.2837 59.7327 41.1245C59.2497 40.9727 58.7844 40.7686 58.3452 40.5159C57.4721 40.0183 56.8097 39.2178 56.4821 38.2646C56.2925 37.7067 56.2021 37.1197 56.215 36.5304C56.1925 35.7525 56.3626 34.9812 56.7101 34.2857C57.0224 33.6766 57.4678 33.1464 58.013 32.7347C58.5926 32.3105 59.2404 31.9895 59.9282 31.7858C60.6571 31.5607 61.4087 31.418 62.1691 31.3604V30.3133C62.1802 29.9945 62.1293 29.6767 62.0193 29.3775C61.9384 29.1743 61.8059 28.9961 61.6349 28.8605C61.4827 28.7462 61.3068 28.6679 61.1203 28.6314C60.9463 28.5984 60.7697 28.5809 60.5926 28.5791C60.3724 28.5808 60.1534 28.6116 59.9412 28.6707C59.7195 28.7279 59.5018 28.8 59.2898 28.8867C59.0832 28.97 58.881 29.0639 58.6839 29.1681C58.495 29.2662 58.3322 29.3578 58.2084 29.4364L58.039 29.5476C57.9931 29.5729 57.9416 29.5864 57.8892 29.5869C57.798 29.5869 57.7133 29.5215 57.6351 29.3906L57.127 28.5791C57.0763 28.5136 57.0488 28.433 57.0489 28.35C57.049 28.3101 57.0578 28.2706 57.0747 28.2345C57.0916 28.1983 57.1161 28.1663 57.1466 28.1406C57.206 28.086 57.2691 28.0358 57.3355 27.9901C57.7371 27.7207 58.1597 27.4843 58.5993 27.2833C59.153 27.0219 59.7258 26.8032 60.3125 26.6289C60.9906 26.4295 61.6803 26.2721 62.3776 26.1577C63.1383 26.0383 63.9072 25.9792 64.6771 25.981C65.4263 25.981 66.1624 25.981 66.8724 26.053C67.5565 26.0977 68.2348 26.2072 68.8984 26.3802C69.5101 26.5334 70.0977 26.7713 70.6442 27.087C71.1725 27.3999 71.635 27.8134 72.0057 28.3042C72.4201 28.8584 72.7252 29.487 72.9047 30.1562C73.1269 31.0105 73.2321 31.8912 73.2174 32.774V39.5015C73.2203 39.7985 73.1897 40.0949 73.1262 40.385C73.0762 40.6319 72.9563 40.8592 72.7809 41.0394C72.5816 41.2243 72.3399 41.3569 72.0774 41.4255C71.6937 41.519 71.2994 41.5608 70.9048 41.5498L62.9248 41.5695ZM62.1886 33.2779C61.572 33.2625 60.9573 33.3532 60.3711 33.5462C59.9286 33.6999 59.5242 33.9476 59.1855 34.2726C58.8884 34.5644 58.665 34.9235 58.5341 35.3197C58.4042 35.7167 58.3382 36.1321 58.3387 36.55C58.3368 36.9574 58.4028 37.3622 58.5341 37.7476C58.6659 38.1264 58.8899 38.4661 59.1855 38.7358C59.5279 39.0391 59.9327 39.2626 60.3711 39.3902C60.9604 39.5669 61.5739 39.6487 62.1886 39.6324V33.2779Z" fill="#282625"/>
<path d="M84.3745 42.0407C83.1873 42.0571 82.0052 41.877 80.8732 41.5072C79.9041 41.1839 79.0124 40.6521 78.257 39.9469C77.531 39.2442 76.9698 38.3799 76.6162 37.4196C76.2251 36.3159 76.0345 35.1472 76.0542 33.9722V18.6686C76.0486 18.357 76.0789 18.0459 76.1446 17.7417C76.1905 17.4887 76.3099 17.2561 76.487 17.0749C76.6808 16.8797 76.9217 16.7416 77.1846 16.6748C77.5637 16.5709 77.9553 16.5237 78.3474 16.5348H84.8654C85.2234 16.525 85.5808 16.5723 85.9248 16.6748C86.1712 16.7492 86.3941 16.8895 86.5708 17.0816C86.7411 17.2679 86.8594 17.4983 86.9132 17.7484C86.9822 18.0634 87.0147 18.3857 87.0101 18.7086V25.997C87.8684 26.1601 88.7053 26.4264 89.5036 26.7905C90.2849 27.1414 90.995 27.6414 91.5966 28.2642C92.2169 28.9323 92.6983 29.7242 93.0113 30.5914C93.3802 31.6606 93.5553 32.7908 93.5281 33.9255C93.5429 34.8855 93.421 35.8426 93.1663 36.7661C92.9458 37.5287 92.603 38.2477 92.1521 38.8933C91.734 39.4822 91.2204 39.992 90.6341 40.4003C90.0447 40.8028 89.4088 41.1276 88.7413 41.3672C88.0503 41.6171 87.3358 41.7914 86.6096 41.8873C85.8685 41.988 85.1219 42.0392 84.3745 42.0407ZM87.023 39.8602C87.7252 39.7795 88.4043 39.5527 89.0191 39.1934C89.5584 38.8743 90.0236 38.4373 90.3821 37.9131C90.7425 37.3646 91.0071 36.7553 91.1638 36.1127C91.3372 35.393 91.4218 34.6537 91.4157 33.9121C91.4198 33.1729 91.3352 32.436 91.1638 31.7183C91.0115 31.0688 90.7443 30.4539 90.3757 29.9046C90.0126 29.3809 89.5486 28.9405 89.0127 28.6109C88.3993 28.2537 87.7227 28.027 87.023 27.9441V39.8602Z" fill="#282625"/>
<path d="M104.396 42.0417C103.626 42.0423 102.857 41.9808 102.097 41.8581C101.349 41.741 100.615 41.5498 99.9054 41.2875C99.2123 41.0284 98.556 40.6824 97.9524 40.2579C97.3436 39.8296 96.8135 39.3017 96.3848 38.697C95.9188 38.0459 95.5642 37.3236 95.3352 36.5591C95.0635 35.6548 94.9335 34.7149 94.9499 33.7718C94.9354 32.8396 95.0653 31.9107 95.3352 31.0173C95.5642 30.2528 95.9188 29.5305 96.3848 28.8794C96.8133 28.2727 97.3434 27.7426 97.9524 27.3119C98.5552 26.8828 99.2117 26.5324 99.9054 26.2692C100.613 25.9997 101.348 25.804 102.097 25.6855C102.858 25.5682 103.626 25.5089 104.396 25.5084C105.119 25.5083 105.843 25.5499 106.561 25.633C107.295 25.7171 108.019 25.8753 108.72 26.1052C109.421 26.3262 110.091 26.6347 110.713 27.0234C111.341 27.4198 111.892 27.924 112.34 28.5121C112.827 29.1694 113.198 29.9034 113.436 30.6829C113.725 31.6467 113.862 32.6488 113.842 33.6538C113.862 34.6859 113.73 35.7154 113.45 36.7099C113.218 37.5141 112.847 38.2728 112.354 38.9528C111.91 39.5507 111.363 40.0678 110.74 40.4809C110.124 40.8873 109.453 41.2053 108.747 41.4252C108.042 41.6542 107.317 41.8146 106.581 41.904C105.856 41.9943 105.126 42.0403 104.396 42.0417ZM109.092 38.415C109.417 38.4113 109.738 38.3421 110.035 38.2117C110.376 38.0483 110.664 37.7939 110.866 37.4772C111.144 37.0272 111.34 36.5321 111.444 36.0147C111.608 35.2385 111.684 34.4466 111.67 33.6538C111.684 32.9021 111.608 32.1514 111.444 31.4174C111.337 30.9235 111.136 30.454 110.852 30.0336C110.649 29.7288 110.364 29.4858 110.029 29.3319C109.734 29.2028 109.415 29.1358 109.092 29.1351C108.814 29.1428 108.538 29.1937 108.275 29.286C107.935 29.4189 107.642 29.6469 107.432 29.9418C107.124 30.3648 106.898 30.8407 106.767 31.3453C106.573 32.1438 106.486 32.964 106.508 33.7849C106.489 34.608 106.563 35.4306 106.727 36.2377C106.819 36.7379 107.011 37.2149 107.292 37.6411C107.485 37.9411 107.772 38.1712 108.109 38.297C108.428 38.3889 108.76 38.431 109.092 38.4216V38.415Z" fill="#282625"/>
<path d="M120.836 33.7235C120.573 33.7487 120.311 33.6785 120.093 33.5252C119.946 33.3978 119.846 33.2228 119.809 33.0292C119.77 32.8113 119.755 32.5894 119.764 32.368C119.783 32.148 119.783 31.9267 119.764 31.7067C119.695 31.2942 119.564 30.895 119.377 30.5231C119.17 30.1227 118.94 29.7362 118.686 29.3659C118.421 28.9824 118.143 28.5988 117.852 28.2087C117.563 27.8268 117.294 27.4295 117.045 27.0185C116.804 26.6262 116.603 26.2096 116.445 25.7753C116.285 25.3537 116.204 24.9051 116.206 24.4528C116.2 23.7713 116.332 23.096 116.593 22.4691C116.844 21.8663 117.206 21.3185 117.659 20.8556C118.12 20.3819 118.669 20.0064 119.273 19.7511C119.877 19.4957 120.525 19.3654 121.178 19.3678C121.844 19.3608 122.504 19.4959 123.116 19.7645C123.703 20.02 124.236 20.3906 124.685 20.8556C125.132 21.3209 125.489 21.8683 125.738 22.4691C125.999 23.096 126.131 23.7713 126.125 24.4528C126.127 24.9051 126.046 25.3537 125.886 25.7753C125.728 26.2096 125.527 26.6262 125.286 27.0185C125.04 27.4218 124.776 27.8186 124.485 28.2087C124.194 28.5988 123.91 28.9824 123.652 29.3659C123.393 29.7345 123.16 30.1212 122.954 30.5231C122.766 30.8941 122.637 31.2938 122.573 31.7067C122.551 31.9266 122.551 32.1481 122.573 32.368C122.589 32.5895 122.574 32.8122 122.528 33.0292C122.486 33.2222 122.384 33.3962 122.237 33.5252C122.02 33.6785 121.757 33.7487 121.495 33.7235H120.836ZM117.697 38.5242C117.693 38.0507 117.787 37.5816 117.975 37.1488C118.33 36.3075 118.986 35.6377 119.809 35.2774C120.668 34.9163 121.631 34.9163 122.489 35.2774C122.896 35.4565 123.266 35.7122 123.581 36.0313C123.895 36.3509 124.145 36.7306 124.317 37.1488C124.499 37.5832 124.591 38.0515 124.588 38.5242C124.592 38.9948 124.5 39.461 124.317 39.8929C124.147 40.314 123.897 40.6961 123.581 41.0171C123.266 41.3362 122.896 41.5919 122.489 41.7709C121.631 42.1321 120.668 42.1321 119.809 41.7709C119.403 41.5919 119.032 41.3362 118.718 41.0171C118.402 40.6946 118.15 40.313 117.975 39.8929C117.788 39.4622 117.694 38.9955 117.697 38.5242Z" fill="#282625"/>
<path d="M104.255 54.9519C104.574 54.7817 104.877 54.5842 105.162 54.3614C106.081 53.6983 106.912 52.9223 107.637 52.0515C108.11 51.4913 108.54 50.896 108.922 50.2706C108.993 50.1478 108.998 50.0769 108.875 49.9919C108.489 49.7067 108.178 49.3323 107.968 48.9007C107.793 48.5949 107.682 48.2564 107.643 47.9062C107.604 47.556 107.638 47.2015 107.741 46.8647C107.906 46.3923 108.213 46.1939 108.648 46.3451C108.785 46.3878 108.9 46.481 108.97 46.6056C109.04 46.7303 109.06 46.877 109.026 47.0159C108.956 47.4482 109.026 47.8915 109.225 48.2817C109.423 48.6719 109.741 48.9887 110.132 49.1865C110.523 49.3842 110.966 49.4526 111.398 49.3817C111.83 49.3107 112.229 49.1043 112.536 48.792C112.688 48.6335 112.863 48.4982 113.055 48.3905C113.17 48.326 113.301 48.2977 113.432 48.3095C113.563 48.3213 113.687 48.3726 113.788 48.4566C113.879 48.556 113.936 48.6819 113.952 48.816C113.967 48.9501 113.939 49.0856 113.873 49.203C113.792 49.3683 113.678 49.5147 113.537 49.6329C113.127 50.0263 112.636 50.3256 112.098 50.51C111.561 50.6944 110.99 50.7594 110.424 50.7004C110.373 50.6882 110.319 50.6954 110.273 50.7207C110.226 50.746 110.191 50.7876 110.174 50.8374C109.513 52.024 108.681 53.1064 107.703 54.0496C106.888 54.8527 105.974 55.548 104.982 56.1186C102.432 57.5772 99.4941 58.2124 96.5693 57.9373C96.0469 57.9129 95.5264 57.8576 95.0105 57.772C94.2758 57.6181 93.5529 57.4129 92.847 57.1579C91.5427 56.713 90.312 56.0761 89.1955 55.2684C87.9741 54.3804 86.8888 53.3189 85.9738 52.1176C85.6572 51.7219 85.3653 51.307 85.0999 50.8752C85.0792 50.8274 85.0422 50.7884 84.9956 50.7651C84.9489 50.7418 84.8956 50.7356 84.8449 50.7477C84.2645 50.8075 83.6781 50.7391 83.1271 50.5473C82.5761 50.3555 82.074 50.0449 81.6563 49.6376C81.4913 49.4787 81.3638 49.2851 81.2831 49.0707C81.1414 48.7495 81.5004 48.3244 81.883 48.3527C82.152 48.3824 82.3999 48.5123 82.5774 48.7165C82.9356 49.0991 83.4109 49.3517 83.9284 49.4345C84.2423 49.4731 84.5608 49.4394 84.8596 49.3361C85.1584 49.2327 85.4297 49.0624 85.6526 48.8381C85.8755 48.6139 86.0442 48.3416 86.1457 48.0421C86.2472 47.7427 86.2789 47.424 86.2384 47.1104C86.2153 47.035 86.2076 46.9558 86.2156 46.8774C86.2236 46.799 86.2473 46.723 86.2851 46.6539C86.323 46.5848 86.3743 46.5239 86.436 46.475C86.4978 46.426 86.5687 46.3899 86.6446 46.3687C86.7241 46.3377 86.8091 46.3234 86.8944 46.3268C86.9796 46.3302 87.0632 46.3512 87.14 46.3885C87.2167 46.4258 87.2849 46.4785 87.3403 46.5434C87.3957 46.6083 87.4371 46.6839 87.4618 46.7655C87.6791 47.3197 87.6791 47.9355 87.4618 48.4897C87.2579 49.0957 86.884 49.6302 86.3848 50.0297C86.2762 50.1194 86.2573 50.1856 86.3376 50.3084C88.0568 53.2173 90.8261 55.356 94.0752 56.284C95.2405 56.6116 96.4452 56.7785 97.6558 56.78C97.8259 56.78 97.8778 56.7422 97.8778 56.5627C97.8778 55.3865 97.8022 54.2008 97.8778 53.0293C97.977 51.7397 98.5014 50.6154 99.7673 50.0297C100.458 49.7508 101.225 49.7183 101.937 49.9377C102.649 50.157 103.264 50.6149 103.679 51.2342C104.072 51.7842 104.276 52.4475 104.26 53.1238C104.241 53.7142 104.255 54.3236 104.255 54.9519Z" fill="#282625"/>
<path d="M99.1385 54.7959H99.1007C99.1007 55.4147 99.1007 56.0335 99.1007 56.6571C99.1007 56.8035 99.1007 56.8507 99.2896 56.8224C99.5589 56.7846 99.8329 56.7279 100.102 56.709C100.371 56.6901 100.414 56.5957 100.409 56.3689C100.409 55.9485 100.409 55.5234 100.409 55.1077C100.393 54.7712 100.412 54.4339 100.466 54.1015C100.505 53.9689 100.592 53.8554 100.71 53.7823C100.827 53.7092 100.967 53.6816 101.104 53.7047C101.448 53.7472 101.576 53.8984 101.576 54.2385C101.576 54.8337 101.576 55.4289 101.576 56.0288C101.576 56.2744 101.628 56.3122 101.859 56.2225C102.091 56.1327 102.403 55.9863 102.681 55.8918C102.72 55.8845 102.757 55.8695 102.79 55.8475C102.823 55.8256 102.851 55.7972 102.873 55.7641C102.894 55.731 102.909 55.6939 102.916 55.6549C102.923 55.616 102.922 55.576 102.913 55.5375C102.847 54.8526 102.842 54.1629 102.832 53.4779C102.858 53.1246 102.813 52.7697 102.7 52.434C102.518 51.9912 102.178 51.6314 101.746 51.4239C101.315 51.2164 100.822 51.1757 100.362 51.3097C100.017 51.4401 99.7186 51.6682 99.502 51.9661C99.2855 52.2641 99.1608 52.6188 99.1432 52.9867C99.1196 53.563 99.1385 54.1676 99.1385 54.7959Z" fill="#F97271"/>
<path d="M97.783 57.6303C92.0247 57.6303 86.7766 54.5267 84.7217 49.9021L86.4979 49.1274C88.2457 53.0482 92.7805 55.6935 97.783 55.6935C102.535 55.6935 106.857 53.3316 108.789 49.6848L110.499 50.5918C108.237 54.8716 103.244 57.6303 97.783 57.6303Z" fill="#282625"/>
</svg>
